<svg id="Layer_1" data-name="Layer 1" xmlns="http://www.w3.org/2000/svg" viewBox="0 0 2331.08 841.11"><defs><style>.cls-1{fill:#f68212;}</style></defs><title>open-access-logo</title><path class="cls-1" d="M909.79,290.44v30.72h90.06V290.44c0-74.34,60.49-134.83,134.83-134.83S1269.5,216.1,1269.5,290.44V512.61h90.07V290.44c0-124-100.89-224.89-224.89-224.89S909.79,166.44,909.79,290.44m299.55,351.84A74.3,74.3,0,1,1,1135,568a74.31,74.31,0,0,1,74.31,74.32" transform="translate(-89.85 -65.55)"/><path class="cls-1" d="M959,641.47c0-96.56,78.57-175.12,175.13-175.12s175.12,78.56,175.12,175.12-78.56,175.14-175.12,175.14S959,738,959,641.47m-90.06,0c0,146.22,119,265.19,265.19,265.19s265.18-119,265.18-265.19-119-265.19-265.18-265.19S869,495.25,869,641.47M176.66,617c27.6,0,43.4-26,43.4-61.35,0-32.42-15.27-60.3-43.4-60.3s-43.95,27.33-43.95,61.1c0,34,16.35,60.55,43.69,60.55Zm-1.88,32.43c-53.32,0-84.93-40.46-84.93-91.9,0-54.15,34.83-94.59,87.88-94.59,55.46,0,85.73,41.52,85.73,91.36,0,59.49-35.63,95.13-88.42,95.13Zm165.45-99.16c3.48.83,7.77,1.08,13.65,1.08,21.71,0,35.1-11,35.1-29.2,0-16.61-11.25-26.52-31.88-26.52-8.3,0-13.93.53-16.87,1.33Zm-40.46-82c12.59-2.15,30.28-3.75,55.2-3.75,25.17,0,43.4,4.81,55.45,14.74,11.53,8.83,19,23.84,19,41.53,0,17.94-5.63,33-16.35,42.86-13.93,12.86-34.83,19-58.94,19a68.68,68.68,0,0,1-13.92-1.08v64.86H299.77ZM572.39,570.09H505.93V613h74.23v33.51H465.21V465.86h111.2v33.5H505.93v37.51h66.46v33.22Zm55.73,76.37V465.86h47.69L713.32,532a567,567,0,0,1,29.47,61.9h.55c-2.41-23.85-3.23-48.23-3.23-75.57V465.86h37.52v180.6H734.76l-38.58-69.67c-10.73-19.57-22.78-42.6-31.35-63.77h-1.08c1.34,24.11,1.88,49.56,1.88,79v54.4Zm932.74-76.9-11.25-38.32c-2.94-10.71-6.17-24.37-8.84-34.83H1540c-2.42,10.71-5.38,24.37-8,34.83l-11,38.32ZM1515,600.09l-12.58,46.37h-42.35l55.2-180.6h53.34l56.24,180.6H1581L1567,600.09Zm263.87,41.54c-7.23,3.48-24.38,7.78-46.08,7.78-62.43,0-94.59-39.14-94.59-90.83,0-61.65,44-95.67,98.6-95.67,21.18,0,37.25,4.3,44.48,8l-8.56,32.15a86.16,86.16,0,0,0-34.31-6.7c-32.15,0-57.34,19.56-57.34,60,0,36.16,21.44,59,57.62,59,12.57,0,26-2.43,34.29-5.91l5.89,32.16Zm160.69,0c-7.24,3.48-24.37,7.78-46.1,7.78-62.42,0-94.58-39.14-94.58-90.83,0-61.65,43.95-95.67,98.61-95.67,21.17,0,37.24,4.3,44.47,8l-8.57,32.15a86.16,86.16,0,0,0-34.31-6.7c-32.14,0-57.33,19.56-57.33,60,0,36.16,21.44,59,57.61,59,12.6,0,26-2.43,34.29-5.91l5.91,32.16Zm154.58-71.54h-66.44V613H2102v33.51H1987V465.86h111.21v33.5h-70.48v37.51h66.44v33.22Zm57.08,34.55c10.72,5.64,27.86,11.27,45.28,11.27,18.75,0,28.68-7.77,28.68-19.82,0-11-8.57-17.69-30.28-25.19-30-10.71-49.85-27.33-49.85-53.85,0-30.82,26-54.14,68.34-54.14,20.63,0,35.36,4,46.08,9.11l-9.11,32.7a84.5,84.5,0,0,0-37.49-8.58c-17.71,0-26.27,8.3-26.27,17.42,0,11.52,9.91,16.61,33.49,25.71,31.88,11.81,46.63,28.4,46.63,54.13,0,30.29-23,56-72.62,56-20.63,0-41-5.63-51.18-11.26l8.3-33.52Zm154.19,0c10.73,5.64,27.86,11.27,45.28,11.27,18.76,0,28.68-7.77,28.68-19.82,0-11-8.58-17.69-30.3-25.19-30-10.71-49.82-27.33-49.82-53.85,0-30.82,26-54.14,68.31-54.14,20.64,0,35.38,4,46.1,9.11l-9.11,32.7a84.45,84.45,0,0,0-37.51-8.58c-17.69,0-26.26,8.3-26.26,17.42,0,11.52,9.91,16.61,33.49,25.71,31.88,11.81,46.62,28.4,46.62,54.13,0,30.29-23,56-72.61,56-20.62,0-41-5.63-51.16-11.26l8.29-33.52Z" transform="translate(-89.85 -65.55)"/></svg>